<?xml version="1.0" encoding="utf-8"?>
<!-- Generator: Adobe Illustrator 24.0.3, SVG Export Plug-In . SVG Version: 6.00 Build 0)  -->
<svg version="1.1" id="Layer_1" xmlns="http://www.w3.org/2000/svg" xmlns:xlink="http://www.w3.org/1999/xlink" x="0px" y="0px"
	 viewBox="0 0 20 20" style="enable-background:new 0 0 20 20;" xml:space="preserve">
<style type="text/css">
	.st0{fill:none;stroke:#000000;stroke-width:1.043;stroke-miterlimit:10;}
</style>
<g>
	<path d="M5.65,13.95L5.65,13.95c0-0.26,0.21-0.48,0.48-0.48h10.08c0.26,0,0.48,0.21,0.48,0.48v0c0,0.26-0.21,0.48-0.48,0.48H6.13
		C5.86,14.43,5.65,14.21,5.65,13.95z"/>
	<path d="M6.03,14.32L6.03,14.32C5.77,14.4,5.51,14.25,5.44,14L2.49,3.71C2.42,3.46,2.57,3.19,2.82,3.12l0,0
		c0.25-0.07,0.52,0.07,0.59,0.33l2.94,10.29C6.43,13.99,6.28,14.25,6.03,14.32z"/>
	<path d="M3.56,5.43L3.56,5.43c0-0.26,0.21-0.48,0.48-0.48h14.43c0.26,0,0.48,0.21,0.48,0.48v0c0,0.26-0.21,0.48-0.48,0.48H4.04
		C3.78,5.91,3.56,5.7,3.56,5.43z"/>
	<path d="M16.33,14.38L16.33,14.38c-0.26-0.06-0.41-0.32-0.35-0.58l2.08-8.41c0.06-0.26,0.32-0.41,0.58-0.35l0,0
		c0.26,0.06,0.41,0.32,0.35,0.58l-2.08,8.41C16.84,14.28,16.58,14.44,16.33,14.38z"/>
	<rect x="12.69" y="4.95" width="0.96" height="9.47"/>
	<rect x="10.56" y="1.78" transform="matrix(-1.836970e-16 1 -1 -1.836970e-16 19.426 -2.6499)" width="0.96" height="13.21"/>
	<rect x="10.56" y="4.91" transform="matrix(-1.836970e-16 1 -1 -1.836970e-16 22.2073 0.1313)" width="0.96" height="12.52"/>
	<rect x="8.26" y="4.95" width="0.96" height="9.39"/>
	<path d="M2.87,3.91H0.52C0.23,3.91,0,3.68,0,3.39v0C0,3.1,0.23,2.87,0.52,2.87h2.35c0.29,0,0.52,0.23,0.52,0.52v0
		C3.39,3.68,3.16,3.91,2.87,3.91z"/>
	<circle class="st0" cx="14.88" cy="17.41" r="1.72"/>
	<circle class="st0" cx="7.76" cy="17.41" r="1.72"/>
</g>
</svg>
