<?xml version="1.0" encoding="utf-8"?>
<!-- Generator: Adobe Illustrator 24.0.3, SVG Export Plug-In . SVG Version: 6.00 Build 0)  -->
<svg version="1.1" id="Layer_1" xmlns="http://www.w3.org/2000/svg" xmlns:xlink="http://www.w3.org/1999/xlink" x="0px" y="0px"
	 viewBox="0 0 20 20" style="enable-background:new 0 0 20 20;" xml:space="preserve">
<style type="text/css">
	.st0{fill:#D4441E;}
	.st1{fill:#CCCCCC;stroke:#000000;stroke-width:0.3579;stroke-miterlimit:10;}
	.st2{fill:#D4441E;stroke:#000000;stroke-width:0.3579;stroke-miterlimit:10;}
	.st3{fill:#CCCCCC;}
</style>
<g>
	<g>
		<ellipse cx="10.27" cy="4.85" rx="0.54" ry="0.36"/>
		<circle class="st0" cx="4.55" cy="10.03" r="0.89"/>
		<g>
			<path class="st1" d="M16.34,10.86l1.78-1.78c1.7-1.7,1.7-4.45,0-6.14c-1.7-1.7-4.45-1.7-6.14,0L10.2,4.71"/>
			<path class="st2" d="M14.52,10.47"/>
			<path class="st2" d="M14.52,10.47"/>
			<path class="st2" d="M12.87,8.82"/>
			<path class="st2" d="M12.87,8.82"/>
			<path class="st2" d="M11.41,7.35"/>
			<path class="st2" d="M11.41,7.35"/>
			<path class="st2" d="M9.48,5.43"/>
			<path class="st1" d="M10.2,4.71L8.42,2.93c-1.7-1.7-4.45-1.7-6.14,0c-1.7,1.7-1.7,4.45,0,6.14l1.78,1.78"/>
			<path class="st2" d="M6.98,7.93"/>
			<path class="st2" d="M5.51,9.4"/>
			<path class="st2" d="M5.51,9.4"/>
			<path class="st2" d="M4.27,10.64"/>
			<path class="st2" d="M4.27,10.64"/>
			<path class="st2" d="M4.27,10.64"/>
			<path class="st2" d="M4.79,10.12"/>
			<path class="st2" d="M5.81,9.1"/>
			<path class="st2" d="M9.48,5.43"/>
			<polyline class="st1" points="4.06,10.86 10.2,17 16.34,10.86 			"/>
		</g>
		<path class="st3" d="M16.1,4.85H4.27c-0.05,0-0.08,0.04-0.08,0.08v5.74c0,0.05,0.04,0.08,0.08,0.08H16.1
			c0.05,0,0.08-0.04,0.08-0.08V4.93C16.18,4.88,16.14,4.85,16.1,4.85z"/>
		<g>
			<g>
				<path class="st3" d="M4.64,10.95c0.69,0,0.69-1.07,0-1.07C3.95,9.87,3.95,10.95,4.64,10.95L4.64,10.95z"/>
			</g>
		</g>
		<g>
			<g>
				<path class="st3" d="M15.75,10.95c0.69,0,0.69-1.07,0-1.07C15.05,9.88,15.05,10.95,15.75,10.95L15.75,10.95z"/>
			</g>
		</g>
	</g>
	<g>
		<g>
			<path class="st3" d="M5.39,11.17c0.05,0,0.11-0.01,0.16-0.02c0.01,0,0.01,0,0.02,0c0.01,0,0.03-0.01,0.04-0.02
				c0.03-0.01,0.06-0.02,0.09-0.03c-0.05,0.01-0.1,0.01-0.14,0.02c0,0,0,0,0.01,0c0.07,0,0.14-0.01,0.21-0.05
				c0.07-0.02,0.12-0.06,0.17-0.11c0.05-0.05,0.09-0.11,0.11-0.17c0.03-0.06,0.05-0.13,0.05-0.21c-0.01-0.05-0.01-0.1-0.02-0.14
				c-0.03-0.09-0.07-0.17-0.14-0.24c-0.04-0.03-0.07-0.06-0.11-0.08c-0.08-0.05-0.17-0.07-0.27-0.07c-0.08,0.01-0.15,0.01-0.22,0.04
				c-0.03,0.01-0.05,0.02-0.08,0.03c0.05-0.01,0.1-0.01,0.14-0.02c-0.01,0-0.01,0-0.02,0c-0.07,0-0.14,0.01-0.21,0.05
				c-0.07,0.02-0.12,0.06-0.17,0.11c-0.05,0.05-0.09,0.11-0.11,0.17c-0.03,0.06-0.05,0.13-0.05,0.21c0.01,0.05,0.01,0.1,0.02,0.14
				c0.03,0.09,0.07,0.17,0.14,0.24c0.04,0.03,0.07,0.06,0.11,0.08C5.2,11.14,5.29,11.17,5.39,11.17L5.39,11.17z"/>
		</g>
	</g>
	<g>
		<g>
			<path class="st3" d="M5.84,11.22c0.82,0,1.62,0.04,2.44,0.1c0.82,0.06,1.66,0.03,2.49,0.03c0.89,0,1.77,0,2.66,0
				c0.6,0,1.52,0.21,1.94-0.34c0.11-0.14,0.1-0.4,0-0.54c-0.01-0.02-0.02-0.03-0.03-0.05c-0.39-0.57-1.32-0.03-0.93,0.54
				c0.01,0.02,0.02,0.03,0.03,0.05c0-0.18,0-0.36,0-0.54c-0.01,0.01-0.02,0.02-0.03,0.04c0.11-0.08,0.21-0.16,0.32-0.25
				c-0.16,0.06-0.59,0.02-0.86,0.02c-0.41,0-0.83,0-1.24,0c-0.8,0-1.59,0-2.39,0c-1.47,0-2.92-0.13-4.39-0.13
				C5.15,10.14,5.15,11.22,5.84,11.22L5.84,11.22z"/>
		</g>
	</g>
</g>
</svg>
