<?xml version="1.0" encoding="utf-8"?>
<!-- Generator: Adobe Illustrator 24.0.3, SVG Export Plug-In . SVG Version: 6.00 Build 0)  -->
<svg version="1.1" id="Layer_1" xmlns="http://www.w3.org/2000/svg" xmlns:xlink="http://www.w3.org/1999/xlink" x="0px" y="0px"
	 viewBox="0 0 20 20" style="enable-background:new 0 0 20 20;" xml:space="preserve">
<style type="text/css">
	.st0{fill:#D4441E;}
	.st1{fill:#D4441E;stroke:#000000;stroke-width:0.3444;stroke-miterlimit:10;}
</style>
<g>
	<ellipse cx="10.22" cy="6.07" rx="0.52" ry="0.34"/>
	<circle class="st0" cx="4.71" cy="11.06" r="0.86"/>
	<g>
		<path class="st1" d="M16.06,11.85l1.72-1.72c1.63-1.63,1.63-4.28,0-5.91c-1.63-1.63-4.28-1.63-5.91,0l-1.72,1.72"/>
		<path class="st1" d="M14.31,11.48"/>
		<path class="st1" d="M14.31,11.48"/>
		<path class="st1" d="M12.72,9.89"/>
		<path class="st1" d="M12.72,9.89"/>
		<path class="st1" d="M11.31,8.48"/>
		<path class="st1" d="M11.31,8.48"/>
		<path class="st1" d="M9.46,6.63"/>
		<path class="st1" d="M10.15,5.94L8.43,4.22c-1.63-1.63-4.28-1.63-5.91,0c-1.63,1.63-1.63,4.28,0,5.91l1.72,1.72"/>
		<path class="st1" d="M7.05,9.04"/>
		<path class="st1" d="M5.64,10.45"/>
		<path class="st1" d="M5.64,10.45"/>
		<path class="st1" d="M4.44,11.64"/>
		<path class="st1" d="M4.44,11.64"/>
		<path class="st1" d="M4.44,11.64"/>
		<path class="st1" d="M4.94,11.14"/>
		<path class="st1" d="M5.93,10.16"/>
		<path class="st1" d="M9.46,6.63"/>
		<polyline class="st1" points="4.23,11.85 10.15,17.77 16.06,11.85 		"/>
	</g>
	<path class="st0" d="M15.82,6.07H4.44c-0.05,0-0.08,0.04-0.08,0.08v5.52c0,0.05,0.04,0.08,0.08,0.08h11.37
		c0.05,0,0.08-0.04,0.08-0.08V6.15C15.9,6.11,15.86,6.07,15.82,6.07z"/>
	<g>
		<g>
			<path class="st0" d="M4.8,11.94c0.66,0,0.67-1.03,0-1.03C4.13,10.91,4.13,11.94,4.8,11.94L4.8,11.94z"/>
		</g>
	</g>
	<g>
		<g>
			<path class="st0" d="M5.4,12.26c0.65,0,1.3-0.09,1.95-0.1c0.31-0.01,0.63-0.01,0.94,0c0.34,0.01,0.67,0.06,1,0.07
				c0.28,0.01,0.52-0.24,0.52-0.52c0-0.29-0.24-0.51-0.52-0.52c-0.33-0.01-0.67-0.05-1-0.07c-0.31-0.01-0.63-0.01-0.94,0
				c-0.65,0.01-1.3,0.1-1.95,0.1C4.74,11.23,4.74,12.26,5.4,12.26L5.4,12.26z"/>
		</g>
	</g>
	<g>
		<g>
			<path class="st0" d="M15.48,11.95c0.66,0,0.67-1.03,0-1.03C14.82,10.91,14.82,11.95,15.48,11.95L15.48,11.95z"/>
		</g>
	</g>
	<g>
		<g>
			<path class="st0" d="M14.94,11.08c-0.44,0-0.87-0.01-1.31,0c-0.44,0.01-0.88,0.09-1.32,0.15c-0.84,0.11-1.67,0.21-2.53,0.21
				c-0.66,0-0.67,1.03,0,1.03c0.86,0,1.7-0.09,2.55-0.21c0.43-0.06,0.87-0.14,1.3-0.15c0.44-0.01,0.87,0,1.31,0
				C15.6,12.12,15.6,11.08,14.94,11.08L14.94,11.08z"/>
		</g>
	</g>
</g>
</svg>
