<?xml version="1.0" encoding="utf-8"?>
<!-- Generator: Adobe Illustrator 24.0.3, SVG Export Plug-In . SVG Version: 6.00 Build 0)  -->
<svg version="1.1" id="Layer_1" xmlns="http://www.w3.org/2000/svg" xmlns:xlink="http://www.w3.org/1999/xlink" x="0px" y="0px"
	 viewBox="0 0 20 20" style="enable-background:new 0 0 20 20;" xml:space="preserve">
<style type="text/css">
	.st0{fill:#D4441E;}
	.st1{fill:#CCCCCC;stroke:#000000;stroke-width:0.367;stroke-miterlimit:10;}
	.st2{fill:#D4441E;stroke:#000000;stroke-width:0.367;stroke-miterlimit:10;}
	.st3{fill:#CCCCCC;}
</style>
<g>
	<g>
		<ellipse cx="10.07" cy="6.87" rx="0.55" ry="0.37"/>
		<circle class="st0" cx="4.21" cy="12.18" r="0.91"/>
		<g>
			<path class="st1" d="M16.3,13.04l1.83-1.83c1.74-1.74,1.74-4.56,0-6.3c-1.74-1.74-4.56-1.74-6.3,0L10,6.73"/>
			<path class="st2" d="M14.43,12.64"/>
			<path class="st2" d="M14.43,12.64"/>
			<path class="st2" d="M12.74,10.94"/>
			<path class="st2" d="M12.74,10.94"/>
			<path class="st2" d="M11.24,9.44"/>
			<path class="st2" d="M11.24,9.44"/>
			<path class="st2" d="M9.26,7.47"/>
			<path class="st1" d="M10,6.73L8.17,4.9c-1.74-1.74-4.56-1.74-6.3,0c-1.74,1.74-1.74,4.56,0,6.3l1.83,1.83"/>
			<path class="st2" d="M6.7,10.03"/>
			<path class="st2" d="M5.19,11.54"/>
			<path class="st2" d="M5.19,11.54"/>
			<path class="st2" d="M3.92,12.81"/>
			<path class="st2" d="M3.92,12.81"/>
			<path class="st2" d="M3.92,12.81"/>
			<path class="st2" d="M4.45,12.28"/>
			<path class="st2" d="M5.5,11.23"/>
			<path class="st2" d="M9.26,7.47"/>
			<polyline class="st1" points="3.7,13.04 10,19.33 16.3,13.04 			"/>
		</g>
		<path class="st3" d="M16.05,6.87H3.92c-0.05,0-0.08,0.04-0.08,0.08v5.89c0,0.05,0.04,0.08,0.08,0.08h12.13
			c0.05,0,0.08-0.04,0.08-0.08V6.95C16.13,6.9,16.09,6.87,16.05,6.87z"/>
		<g>
			<g>
				<path class="st3" d="M4.3,13.13c0.71,0,0.71-1.1,0-1.1C3.59,12.02,3.59,13.13,4.3,13.13L4.3,13.13z"/>
			</g>
		</g>
		<g>
			<g>
				<path class="st3" d="M15.69,13.13c0.71,0,0.71-1.1,0-1.1C14.97,12.03,14.97,13.13,15.69,13.13L15.69,13.13z"/>
			</g>
		</g>
	</g>
	<g>
		<g>
			<path class="st3" d="M5.07,13.35c0.05,0,0.11-0.01,0.16-0.02c0.01,0,0.01,0,0.02,0c0.01,0,0.03-0.01,0.04-0.02
				c0.03-0.01,0.06-0.02,0.09-0.03c-0.05,0.01-0.1,0.01-0.14,0.02c0,0,0,0,0.01,0c0.07,0,0.14-0.01,0.22-0.05
				c0.07-0.02,0.12-0.06,0.17-0.11c0.05-0.05,0.09-0.11,0.11-0.17c0.03-0.06,0.05-0.13,0.05-0.22C5.8,12.7,5.8,12.65,5.78,12.6
				c-0.03-0.09-0.07-0.17-0.14-0.25c-0.04-0.03-0.07-0.06-0.11-0.08c-0.08-0.05-0.17-0.07-0.28-0.07c-0.08,0.01-0.15,0.01-0.23,0.04
				C5,12.26,4.97,12.27,4.94,12.28c0.05-0.01,0.1-0.01,0.14-0.02c-0.01,0-0.01,0-0.02,0c-0.07,0-0.14,0.01-0.22,0.05
				c-0.07,0.02-0.12,0.06-0.17,0.11s-0.09,0.11-0.11,0.17c-0.03,0.06-0.05,0.13-0.05,0.22c0.01,0.05,0.01,0.1,0.02,0.14
				c0.03,0.09,0.07,0.17,0.14,0.25c0.04,0.03,0.07,0.06,0.11,0.08C4.87,13.32,4.96,13.35,5.07,13.35L5.07,13.35z"/>
		</g>
	</g>
	<g>
		<g>
			<path class="st3" d="M5.53,13.4c0.84,0,1.66,0.04,2.5,0.1c0.84,0.06,1.7,0.03,2.55,0.03c0.91,0,1.82,0,2.73,0
				c0.62,0,1.56,0.22,1.99-0.35c0.11-0.14,0.1-0.41,0-0.55c-0.01-0.02-0.02-0.03-0.03-0.05c-0.4-0.58-1.35-0.03-0.95,0.55
				c0.01,0.02,0.02,0.03,0.03,0.05c0-0.18,0-0.37,0-0.55c-0.01,0.01-0.02,0.02-0.03,0.04c0.11-0.08,0.22-0.16,0.33-0.26
				c-0.16,0.06-0.61,0.02-0.88,0.02c-0.42,0-0.85,0-1.27,0c-0.82,0-1.63,0-2.45,0c-1.51,0-2.99-0.13-4.5-0.13
				C4.82,12.3,4.82,13.4,5.53,13.4L5.53,13.4z"/>
		</g>
	</g>
</g>
</svg>
