<?xml version="1.0" encoding="utf-8"?>
<!-- Generator: Adobe Illustrator 24.0.3, SVG Export Plug-In . SVG Version: 6.00 Build 0)  -->
<svg version="1.1" id="Layer_1" xmlns="http://www.w3.org/2000/svg" xmlns:xlink="http://www.w3.org/1999/xlink" x="0px" y="0px"
	 viewBox="0 0 24 24" style="enable-background:new 0 0 24 24;" xml:space="preserve">
<style type="text/css">
	.st0{fill-rule:evenodd;clip-rule:evenodd;}
</style>
<path class="st0" d="M14.01,14.38c-0.88,0.79-2.04,1.27-3.31,1.27c-2.74,0-4.96-2.22-4.96-4.96s2.22-4.96,4.96-4.96
	s4.96,2.22,4.96,4.96c0,1.27-0.48,2.44-1.27,3.31l3.88,3.88l-0.37,0.37C17.89,18.26,14.01,14.38,14.01,14.38z M10.7,6.26
	c2.45,0,4.43,1.99,4.43,4.43s-1.99,4.43-4.43,4.43s-4.43-1.99-4.43-4.43S8.25,6.26,10.7,6.26z"/>
</svg>
